<svg width="401" height="95" viewBox="0 0 401 95" fill="none" xmlns="http://www.w3.org/2000/svg">
<rect x="187.115" y="1.47297" width="56.0954" height="13.9762" rx="0.5" fill="white" stroke="white"/>
<rect x="187.114" y="38.74" width="39.6155" height="13.9762" rx="0.5" fill="white" stroke="white"/>
<rect x="187.114" y="79.0021" width="56.0954" height="13.9762" rx="0.5" fill="white" stroke="white"/>
<rect x="97.6119" y="1.47293" width="68.2087" height="13.9762" rx="0.5" fill="white" stroke="white"/>
<rect x="111.588" y="4.2863" width="88.6921" height="13.9762" rx="0.5" transform="rotate(90 111.588 4.2863)" fill="white" stroke="white"/>
<rect x="165.82" y="1.44607" width="91.5322" height="13.9762" rx="0.5" transform="rotate(90 165.82 1.44607)" fill="white" stroke="white"/>
<path d="M342.392 1.47297H399.866C400.142 1.47297 400.366 1.69683 400.366 1.97297V14.9492C400.366 15.2253 400.142 15.4492 399.866 15.4492H342.392C342.116 15.4492 341.892 15.2253 341.892 14.9492V1.97297C341.892 1.69683 342.116 1.47297 342.392 1.47297Z" fill="white" stroke="white"/>
<rect x="377.901" y="4.36643" width="88.6118" height="13.9762" rx="0.5" transform="rotate(90 377.901 4.36643)" fill="white" stroke="white"/>
<rect x="264.504" y="1.47297" width="56.0954" height="13.9762" rx="0.5" fill="white" stroke="white"/>
<path d="M265.003 38.74H320.099C320.375 38.74 320.599 38.9639 320.599 39.24V52.2162C320.599 52.4923 320.375 52.7162 320.099 52.7162H265.003C264.727 52.7162 264.503 52.4923 264.503 52.2162V39.24C264.503 38.9639 264.727 38.74 265.003 38.74Z" fill="white" stroke="white"/>
<path d="M265.003 79.0021H320.099C320.375 79.0021 320.599 79.226 320.599 79.5021V92.4783C320.599 92.7544 320.375 92.9783 320.099 92.9783H265.003C264.727 92.9783 264.503 92.7544 264.503 92.4783V79.5021C264.503 79.226 264.727 79.0021 265.003 79.0021Z" fill="white" stroke="white"/>
<rect x="278.479" y="1.47302" width="40.6931" height="13.9762" rx="0.5" transform="rotate(90 278.479 1.47302)" fill="white" stroke="white"/>
<rect x="320.599" y="44.5907" width="45.4941" height="13.9762" rx="0.5" transform="rotate(90 320.599 44.5907)" fill="white" stroke="white"/>
<path d="M42.1842 80.8435C45.936 80.474 49.5326 79.2856 52.7332 77.3923C53.7037 76.8182 54.6379 76.1792 55.5288 75.4787C55.778 75.2828 56.0522 75.1298 56.3389 75.0216C57.3446 74.642 58.4718 74.8186 59.2231 75.57L64.7635 81.1103C65.7458 82.0927 65.7277 83.6595 64.7123 84.5298C64.3005 84.8827 63.8818 85.2264 63.4566 85.5608C61.9584 86.7389 60.3787 87.8008 58.732 88.7398C54.0663 91.4001 48.8618 93.0736 43.4414 93.6075C34.5808 94.4802 25.6918 92.2536 18.2889 87.3071C10.886 82.3606 5.42718 75.0003 2.84265 66.4803C0.258128 57.9602 0.707767 48.8076 4.11496 40.5819C7.52215 32.3562 13.6761 25.5664 21.5282 21.3694C29.3803 17.1723 38.4448 15.8278 47.1771 17.5647C55.9095 19.3017 63.7694 24.0128 69.4177 30.8952C72.873 35.1055 75.3698 39.969 76.7878 45.1493C77.2882 46.9776 77.6543 48.8455 77.8807 50.738C77.9449 51.2751 77.9979 51.8142 78.0396 52.3549C78.1422 53.6883 77.0471 54.809 75.6578 54.809H67.8226C66.7601 54.809 65.8381 54.1368 65.3954 53.1573C65.2691 52.878 65.1834 52.576 65.1458 52.2613C65.0111 51.1359 64.8024 50.0236 64.5221 48.9313C63.5977 45.3294 61.8949 41.9459 59.5033 39.0317C55.7374 34.4431 50.497 31.3021 44.6749 30.144C38.8529 28.9859 32.8094 29.8824 27.5742 32.6807C22.339 35.4789 18.236 40.0059 15.9644 45.4901C13.6927 50.9744 13.3929 57.0767 15.1161 62.7572C16.8393 68.4377 20.4788 73.345 25.4145 76.6429C30.3502 79.9409 36.2767 81.4254 42.1842 80.8435Z" fill="white" stroke="white"/>
<circle cx="47.7612" cy="54.1286" r="8.14502" fill="white"/>
</svg>
